name C:\Users\r0593348\3dpredictsim\Results\MidTarsalJoint\Fal_s1_bCst_PF_Natali2010_ls150_MT_k800_d010_MTP_T5_ig21.mot
datacolumns 128
datarows 4
range 1.67980793 1.71340409
endheader
time	pelvis_tilt	pelvis_list	pelvis_rotation	pelvis_tx	pelvis_ty	pelvis_tz	hip_flexion_l	hip_adduction_l	hip_rotation_l	hip_flexion_r	hip_adduction_r	hip_rotation_r	knee_angle_l	knee_angle_r	ankle_angle_l	ankle_angle_r	subtalar_angle_l	subtalar_angle_r	mtj_angle_l	mtj_angle_r	mtp_angle_l	mtp_angle_r	lumbar_extension	lumbar_bending	lumbar_rotation	arm_flex_l	arm_add_l	arm_rot_l	arm_flex_r	arm_add_r	arm_rot_r	elbow_flex_l	elbow_flex_r	pro_sup_l	pro_sup_r	glut_med1_l/activation	glut_med2_l/activation	glut_med3_l/activation	glut_min1_l/activation	glut_min2_l/activation	glut_min3_l/activation	semimem_l/activation	semiten_l/activation	bifemlh_l/activation	bifemsh_l/activation	sar_l/activation	add_long_l/activation	add_brev_l/activation	add_mag1_l/activation	add_mag2_l/activation	add_mag3_l/activation	tfl_l/activation	pect_l/activation	grac_l/activation	glut_max1_l/activation	glut_max2_l/activation	glut_max3_l/activation	iliacus_l/activation	psoas_l/activation	quad_fem_l/activation	gem_l/activation	peri_l/activation	rect_fem_l/activation	vas_med_l/activation	vas_int_l/activation	vas_lat_l/activation	med_gas_l/activation	lat_gas_l/activation	soleus_l/activation	tib_post_l/activation	flex_dig_l/activation	flex_hal_l/activation	tib_ant_l/activation	per_brev_l/activation	per_long_l/activation	per_tert_l/activation	ext_dig_l/activation	ext_hal_l/activation	ercspn_l/activation	intobl_l/activation	extobl_l/activation	glut_med1_r/activation	glut_med2_r/activation	glut_med3_r/activation	glut_min1_r/activation	glut_min2_r/activation	glut_min3_r/activation	semimem_r/activation	semiten_r/activation	bifemlh_r/activation	bifemsh_r/activation	sar_r/activation	add_long_r/activation	add_brev_r/activation	add_mag1_r/activation	add_mag2_r/activation	add_mag3_r/activation	tfl_r/activation	pect_r/activation	grac_r/activation	glut_max1_r/activation	glut_max2_r/activation	glut_max3_r/activation	iliacus_r/activation	psoas_r/activation	quad_fem_r/activation	gem_r/activation	peri_r/activation	rect_fem_r/activation	vas_med_r/activation	vas_int_r/activation	vas_lat_r/activation	med_gas_r/activation	lat_gas_r/activation	soleus_r/activation	tib_post_r/activation	flex_dig_r/activation	flex_hal_r/activation	tib_ant_r/activation	per_brev_r/activation	per_long_r/activation	per_tert_r/activation	ext_dig_r/activation	ext_hal_r/activation	ercspn_r/activation	intobl_r/activation	extobl_r/activation	
          1.67980793	         -2.93008026	          2.10808884	         -5.12890700	          2.09975991	          0.91933543	          0.00165774	         29.38645019	          3.46667737	         -2.17066406	        -17.29997080	         -1.13394145	          6.39324586	        -12.12378047	         -7.04787537	          5.85382322	         -0.76635949	         -4.33363721	          8.56351075	         -0.00895525	          1.91515462	         -0.88066259	         17.34161482	         -2.06487606	         -0.32647125	          2.00673302	         -5.26824081	        -13.45633342	          5.31461364	          4.56277545	        -13.45623402	         15.45439568	         17.64778359	         34.83711661	         86.51662706	         86.51662706	          0.05933207	          0.05933208	          0.05000018	          0.05933229	          0.05933226	          0.05006793	          0.11039648	          0.05898132	          0.21343576	          0.05000028	          0.05000034	          0.13778777	          0.30658183	          0.12890342	          0.15191953	          0.10774014	          0.05000013	          0.08299004	          0.08396567	          0.05000040	          0.11305481	          0.15731432	          0.05341292	          0.05000025	          0.17695515	          0.25559955	          0.13134943	          0.05871871	          0.14202275	          0.14008148	          0.12506267	          0.05000043	          0.05000051	          0.05240033	          0.05000002	          0.05000041	          0.05000020	          0.55148301	          0.26414480	          0.16669649	          0.25680799	          0.47865827	          0.23475491	          0.05933229	          0.11100761	          0.10212488	          0.26508126	          0.09915126	          0.07080213	          0.29878795	          0.19532840	          0.10828123	          0.05000100	          0.05000028	          0.05000018	          0.06134882	          0.10112316	          0.10453867	          0.05563024	          0.05000242	          0.05000421	          0.05000090	          0.30438205	          0.07963049	          0.05000763	          0.05000913	          0.05000458	          0.05000417	          0.39268328	          0.62594609	          0.05000778	          0.05000072	          0.05504902	          0.22552420	          0.05162387	          0.05016829	          0.05007111	          0.28537011	          0.38926815	          0.30893447	          0.28579271	          0.28264662	          0.37194964	          0.05000004	          0.05921984	          0.12343790	          0.05000025	          0.05000007	          0.05000025	          0.05000003	          0.05000018	          0.05000014	
          1.69100665	         -2.92661046	          2.19667593	         -5.41102015	          2.11662417	          0.91835238	          0.00145832	         28.74736644	          3.79690674	         -1.93129188	        -17.17721963	         -1.42835415	          6.18939589	        -12.30417294	         -8.94895117	          5.23078103	         -1.43250839	         -4.70719496	          9.48839996	         -0.01001232	          1.50212682	         -0.87252559	         18.63853022	         -1.86620334	         -0.53153847	          2.07180828	         -6.11703749	        -13.45612093	          5.07058782	          4.28186756	        -13.46424494	         15.79054339	         17.24241885	         35.98300968	         86.51662706	         86.51662706	          0.05000001	          0.05000007	          0.11179536	          0.05000007	          0.05000008	          0.05000011	          0.09303258	          0.05000022	          0.17986490	          0.05000017	          0.05001140	          0.11611562	          0.25836070	          0.31232887	          0.21152765	          0.12438488	          0.05000079	          0.06995239	          0.11878127	          0.05712116	          0.11237016	          0.13257099	          0.05000011	          0.05933289	          0.40501009	          0.21539680	          0.11068976	          0.05933553	          0.15209397	          0.15408435	          0.13126504	          0.05000044	          0.05933636	          0.05000003	          0.05933279	          0.05000904	          0.05933265	          0.48125904	          0.28979465	          0.20378872	          0.21641527	          0.44173674	          0.19783081	          0.05000003	          0.09354743	          0.08606185	          0.22338718	          0.08355596	          0.05966582	          0.25179235	          0.16460562	          0.09124992	          0.05000301	          0.05000068	          0.05000087	          0.05169945	          0.08521790	          0.19497306	          0.05768045	          0.05941775	          0.05930269	          0.05933273	          0.25650649	          0.09579867	          0.05000512	          0.05000224	          0.05000171	          0.05000208	          0.33091893	          0.57726759	          0.05000049	          0.05933059	          0.05933228	          0.19005219	          0.13255912	          0.14988130	          0.14578578	          0.24048476	          0.32804089	          0.26034276	          0.24557895	          0.23819024	          0.31344717	          0.05000004	          0.05000014	          0.13420055	          0.05000013	          0.05000004	          0.05000019	          0.05630763	          0.06092104	          0.05791294	
          1.70220537	         -2.91931468	          2.28819909	         -5.66446503	          2.13375834	          0.91741833	          0.00127320	         27.98600235	          4.04960803	         -1.66890084	        -16.98121310	         -1.72148021	          5.97590121	        -12.78829102	        -10.96354402	          4.72704716	         -2.26653392	         -5.10038329	         10.36795625	         -0.08984568	          1.03679502	         -0.91618334	         19.87177211	         -1.64917739	         -0.74741238	          2.12552072	         -6.98877692	        -13.46278469	          4.88431375	          3.93298328	        -13.46991193	         16.06566304	         16.88489313	         37.10020446	         86.51662706	         86.51662706	          0.23433341	          0.23777337	          0.31006417	          0.34935109	          0.22269893	          0.21375362	          0.08951904	          0.05002816	          0.15261230	          0.07680023	          0.05000234	          0.09785206	          0.21772372	          0.26320334	          0.17825704	          0.12023051	          0.05000054	          0.05933099	          0.10010002	          0.05000069	          0.14028770	          0.11171947	          0.05515926	          0.05000089	          0.34130685	          0.18151758	          0.22628145	          0.05000278	          0.12817149	          0.12984882	          0.11061869	          0.05000138	          0.05000380	          0.05359946	          0.05000053	          0.05000050	          0.05000092	          0.56449706	          0.32719754	          0.17173562	          0.36210257	          0.51504422	          0.16873670	          0.06186682	          0.11438801	          0.07252534	          0.32221006	          0.07041362	          0.05028114	          0.31421487	          0.13871520	          0.07689744	          0.05000154	          0.05000028	          0.05000022	          0.05000023	          0.07181442	          0.16430632	          0.05004866	          0.05007238	          0.05000122	          0.05000102	          0.22498695	          0.08074071	          0.05000128	          0.05000286	          0.05000173	          0.05000119	          0.27886942	          0.54426117	          0.05000033	          0.05000077	          0.05000028	          0.16015929	          0.11170940	          0.12630702	          0.12285563	          0.20265934	          0.27644394	          0.21939392	          0.20695236	          0.20072591	          0.26414580	          0.05000002	          0.09841081	          0.15321660	          0.05000016	          0.05000006	          0.05000017	          0.05153591	          0.05133889	          0.05000006	
          1.71340409	         -2.91041128	          2.37312463	         -5.88443368	          2.15094656	          0.91655642	          0.00106717	         27.17479801	          4.28460881	         -1.40558349	        -16.67981191	         -2.00377197	          5.76878767	        -13.23544158	        -13.12363964	          4.28439656	         -3.27401616	         -5.49846001	         11.20452995	         -0.08172200	          0.56017522	         -0.89424642	         20.94424689	         -1.43683545	         -0.96429513	          2.17044981	         -7.83614055	        -13.47078963	          4.75701905	          3.55285948	        -13.48139799	         16.30555881	         16.55199347	         38.16876794	         86.51662706	         86.51662706	          0.32708977	          0.33120645	          0.36645034	          0.29440263	          0.18767319	          0.19027177	          0.07820479	          0.09049922	          0.12860840	          0.06477104	          0.05000071	          0.08246114	          0.18347843	          0.22180498	          0.17929628	          0.16401531	          0.05000032	          0.05000169	          0.10428261	          0.20717780	          0.18804846	          0.16010079	          0.05000010	          0.05000011	          0.28762339	          0.15296709	          0.19069055	          0.05000006	          0.13024664	          0.15775200	          0.10591487	          0.05000003	          0.05000006	          0.05000000	          0.05000001	          0.05000011	          0.05000011	          0.61844782	          0.29603439	          0.16150645	          0.57307900	          0.54898166	          0.28806192	          0.08217521	          0.09639615	          0.06111797	          0.30458229	          0.05933842	          0.05000011	          0.26479493	          0.11689702	          0.06480244	          0.05000282	          0.05000029	          0.05000024	          0.05000021	          0.06051908	          0.16675940	          0.06082687	          0.05000436	          0.05000638	          0.05000541	          0.18960130	          0.06804399	          0.05000121	          0.05000234	          0.05000161	          0.05000129	          0.23500660	          0.49560266	          0.05000025	          0.05000084	          0.05000021	          0.13496816	          0.12602105	          0.11917785	          0.11764531	          0.17078342	          0.23296258	          0.18488584	          0.17440124	          0.16915423	          0.22259890	          0.05463919	          0.10194565	          0.15464221	          0.05000056	          0.11547901	          0.05000099	          0.08179197	          0.05000001	          0.05000004	
